<svg xmlns="http://www.w3.org/2000/svg" viewBox="30 0 68 68"><defs><style>.cls-1{fill:#ffffff;}</style></defs><title>User Icon</title><g id="user-icon" data-name="User Icon"><path class="cls-1" d="M42.79,58.28h0C65.13,76.56,97,60.23,97,33A33,33,0,1,0,42.79,58.28Zm1.83-1.15c5.89-22.82,32.86-22.83,38.76,0A30.86,30.86,0,0,1,44.62,57.13ZM64,2C92.22,2,105.54,36.7,85.09,55.67,82.56,47,76.82,40.83,69.57,38.75a13,13,0,1,0-11.14,0c-7.25,2.08-13,8.24-15.52,16.92C22.48,36.71,35.75,2,64,2Zm0,36A11,11,0,1,1,75,27,11,11,0,0,1,64,38Z"/></g></svg>